<?xml version="1.0" standalone="no"?>
<!DOCTYPE svg PUBLIC "-//W3C//DTD SVG 20010904//EN"
 "http://www.w3.org/TR/2001/REC-SVG-20010904/DTD/svg10.dtd">
<svg version="1.0" xmlns="http://www.w3.org/2000/svg"
 width="700.000000pt" height="599.000000pt" viewBox="0 0 700.000000 599.000000"
 preserveAspectRatio="xMidYMid meet">

<g transform="translate(0.000000,599.000000) scale(0.100000,-0.100000)"
fill="#000000" stroke="none">
<path d="M760 4983 c1 -5 132 -188 293 -408 l293 -400 2567 -3 2566 -2 8 37
c4 21 8 88 7 148 0 93 -4 122 -28 190 -36 104 -83 181 -157 254 -73 73 -149
121 -254 158 l-80 28 -2607 3 c-1435 1 -2608 -1 -2608 -5z"/>
<path d="M530 3728 c17 -24 151 -208 298 -410 l267 -368 974 0 973 0 -5 -22
c-4 -13 -119 -448 -257 -968 -137 -519 -250 -948 -250 -952 0 -5 253 -7 562
-6 l563 3 147 548 c80 302 149 555 152 563 5 12 110 14 693 14 784 0 750 -3
928 85 173 84 331 225 433 384 79 124 107 205 231 676 67 253 124 468 127 478
5 16 -25 17 -562 15 l-567 -3 -84 -315 c-86 -325 -100 -360 -167 -423 -17 -16
-56 -41 -86 -56 l-55 -26 -329 -3 c-180 -2 -332 0 -336 5 -5 4 23 125 61 268
38 143 87 326 108 408 l39 147 -1945 0 -1945 0 32 -42z"/>
<path d="M1549 2328 c81 -112 260 -356 397 -543 137 -187 254 -341 259 -341 9
0 294 1040 295 1074 0 9 -117 12 -550 12 l-550 0 149 -202z"/>
</g>
</svg>
